<svg id="Capa_1" data-name="Capa 1" xmlns="http://www.w3.org/2000/svg" viewBox="0 0 98.55 24.51"><defs><style>.cls-1{fill:#fff;}</style></defs><path class="cls-1" d="M182,49.18a7.24,7.24,0,1,0,6.78,7.22A7,7,0,0,0,182,49.18Zm0,11.33A4.17,4.17,0,1,1,186,56.35,4.06,4.06,0,0,1,182,60.51Z" transform="translate(-109.45 -44.14)"/><path class="cls-1" d="M144.12,61.3V44.58h0a.42.42,0,0,0-.41-.44h-2.1a.43.43,0,0,0-.42.44v.06h0s0,11.66,0,16.64V63.2a.43.43,0,0,0,.41.45h2.11a.43.43,0,0,0,.41-.45V61.3Z" transform="translate(-109.45 -44.14)"/><path class="cls-1" d="M116.33,49.25a6.84,6.84,0,0,0-4,1.41V44.59h0a.41.41,0,0,0-.4-.42h-2a.41.41,0,0,0-.4.42v1.28c0,3.39,0,10.93,0,11.22a7.44,7.44,0,0,0,.54,2.11,7,7,0,0,0,6.53,4.42,7.18,7.18,0,0,0-.2-14.36Zm.11,11.37a4.16,4.16,0,1,1,4-4.16,4.06,4.06,0,0,1-4,4.16Z" transform="translate(-109.45 -44.14)"/><path class="cls-1" d="M197.66,49.26a3.73,3.73,0,0,0-1-.1l-.39,0a3.15,3.15,0,0,0-.44,0,4.6,4.6,0,0,0-.66.07,5.16,5.16,0,0,0-2.95,1.39,5.35,5.35,0,0,0-1.7,4.23c0,.68,0,8.2,0,8.2h0v.1a.45.45,0,0,0,.44.46h1.92a.46.46,0,0,0,.45-.46V60.27a.59.59,0,0,0,0-.14c0-2.25,0-5.2.08-5.82a2.15,2.15,0,0,1,1.22-1.75,4.78,4.78,0,0,1,2-.5h.93a.43.43,0,0,0,.44-.44V49.69a.43.43,0,0,0-.37-.43Z" transform="translate(-109.45 -44.14)"/><path class="cls-1" d="M159,49.16a.64.64,0,0,0-.27-.1s-4.11-.09-5.49,1.61c-2.44,3-.26,9.87-4.38,10l-2.53,0a.45.45,0,0,0-.43.45v2.12a.43.43,0,0,0,.36.43h0l2,0c2.14,0,5.22-.85,6.07-4.88.46-2.21.32-4.9,1.29-5.73a3.77,3.77,0,0,1,2-1c.26,0,1.05,0,1.05,0a.43.43,0,0,0,.43-.43V49.49a.42.42,0,0,0-.16-.33Z" transform="translate(-109.45 -44.14)"/><path class="cls-1" d="M138.46,58.19c-.33-.18-1.35-.5-1.89-.74l-.13-.06a.39.39,0,0,0-.18,0h-.13a.35.35,0,0,0-.13.08h0l0,0h0a1.74,1.74,0,0,0-.13.32,3.65,3.65,0,0,1-2,2.23,3.78,3.78,0,0,1-4.92-1.31l7.87-3.38c.85-.47,1.47-.67,1.47-1.92a1.79,1.79,0,0,0-.25-.92v0a6.65,6.65,0,0,0-5.89-3.39,7.25,7.25,0,0,0,.17,14.5,6.25,6.25,0,0,0,3-.77,7.2,7.2,0,0,0,3.38-3.79,4.67,4.67,0,0,0,.14-.5.32.32,0,0,0-.27-.37Zm-3.81-5-6.51,2.75a4,4,0,0,1,4-3.71,3.87,3.87,0,0,1,2.55,1Z" transform="translate(-109.45 -44.14)"/><path class="cls-1" d="M203.26,49.14v-4.6s0-.4-.28-.4h-2.56c-.24,0-.26.32-.26.43,0,1.64,0,10.08.12,11.76A10.68,10.68,0,0,0,201.51,61a5.36,5.36,0,0,0,3.26,2.5,4.79,4.79,0,0,0,.54.13,10.74,10.74,0,0,0,2.2.09.47.47,0,0,0,.49-.44V61.35a.46.46,0,0,0-.49-.43,13.41,13.41,0,0,1-2-.27,5.83,5.83,0,0,1-.74-.33c-1.21-.62-1.45-2.52-1.53-5.46s.06-2.79.06-2.79h3.8a.42.42,0,0,0,.42-.43,2.22,2.22,0,0,0-.82-2.12,2.67,2.67,0,0,0-.81-.32,2.87,2.87,0,0,0-.58-.06Z" transform="translate(-109.45 -44.14)"/><path class="cls-1" d="M173.67,56.46a7.09,7.09,0,0,0-6.87-7.28,7,7,0,0,0-6.53,4.42,7.44,7.44,0,0,0-.54,2.12c0,.29,0,7.82,0,11.21v1.29a.41.41,0,0,0,.4.42h2a.41.41,0,0,0,.4-.42h0V62.14a6.83,6.83,0,0,0,4,1.4,7.07,7.07,0,0,0,7.07-7.08Zm-3-.13a4,4,0,1,1-3.95-4.16,4.06,4.06,0,0,1,3.95,4.16Z" transform="translate(-109.45 -44.14)"/></svg>