<?xml version="1.0" encoding="utf-8"?>
<!-- Generator: Adobe Illustrator 22.1.0, SVG Export Plug-In . SVG Version: 6.00 Build 0)  -->
<svg version="1.1" id="Bold-logo" xmlns="http://www.w3.org/2000/svg" xmlns:xlink="http://www.w3.org/1999/xlink" x="0px" y="0px"
	 viewBox="0 0 113.7 40" style="enable-background:new 0 0 113.7 40;" xml:space="preserve">
<style type="text/css">
	.st0{fill:#ffd600;}
</style>
<g>
	<path id="Trazado_5" class="st0" d="M98.5,10.1c8.4,0,15.2,6,15.2,14.8s-6.8,14.5-15.2,14.5H85.7V10.1H98.5z M98.5,32.8
		c4.2,0.1,7.7-3.2,7.8-7.4c0-0.2,0-0.4,0-0.6c0.2-4.3-3.1-8-7.4-8.2c-0.1,0-0.3,0-0.4,0h-5.8v16.2H98.5z"/>
	<path id="Trazado_4" class="st0" d="M81.6,32.8v6.6H60.7V10.1h7v22.8H81.6L81.6,32.8z"/>
	<path id="Trazado_1" class="st0" d="M31.1,0h19.1v6H31.1L31.1,0z"/>
	<path id="Trazado_3" class="st0" d="M41.1,9.5c8.4,0,15.3,6.8,15.3,15.2S49.6,40,41.1,40s-15.3-6.8-15.3-15.2c0,0,0,0,0,0
		c-0.1-8.3,6.4-15.1,14.7-15.2C40.7,9.5,40.9,9.5,41.1,9.5z M41.1,33.1c4.8,0,7.9-3.4,7.9-8.3c0-4.9-3.1-8.3-7.9-8.3
		c-4.7,0-7.9,3.4-7.9,8.3C33.2,29.7,36.3,33.1,41.1,33.1z"/>
	<path id="Trazado_2" class="st0" d="M12.7,10.1c5.2,0,8.9,3.5,8.9,7.8c0,2.5-1.4,4.7-3.6,5.7v0c3,1,5,3.8,5.2,6.9
		c0,4.9-3.2,8.9-10.5,8.9H0V10.1H12.7L12.7,10.1z M11.3,21.5c1.9,0,3.3-1.2,3.3-2.8S13.2,16,11.3,16H7v5.5H11.3z M11.9,33.5
		c2.3,0,3.8-1.4,3.8-3.3c0-2.1-1.6-3.3-3.8-3.3H7v6.6H11.9z"/>
</g>
</svg>
